<svg xmlns="http://www.w3.org/2000/svg" style="display:none">
  <symbol id="arrow-right" viewBox="0 0 24 24" fill="none" stroke="currentColor" stroke-width="2" stroke-linecap="round" stroke-linejoin="round">
    <line x1="5" y1="12" x2="19" y2="12" />
    <polyline points="12 5 19 12 12 19" />
  </symbol>
  <symbol id="check" viewBox="0 0 24 24" fill="none" stroke="currentColor" stroke-width="2" stroke-linecap="round" stroke-linejoin="round">
    <polyline points="20 6 9 17 4 12" />
  </symbol>
  <symbol id="globe" viewBox="0 0 24 24" fill="none" stroke="currentColor" stroke-width="2" stroke-linecap="round" stroke-linejoin="round">
    <circle cx="12" cy="12" r="10" />
    <line x1="2" y1="12" x2="22" y2="12" />
    <path d="M12 2a15.3 15.3 0 0 1 4 10 15.3 15.3 0 0 1-4 10 15.3 15.3 0 0 1-4-10 15.3 15.3 0 0 1 4-10" />
  </symbol>
  <symbol id="github" viewBox="0 0 24 24" fill="none" stroke="currentColor" stroke-width="2" stroke-linecap="round" stroke-linejoin="round">
    <path d="M9 19c-5 1.5-5-2.5-7-3" />
    <path d="M15 22v-3.87a3.37 3.37 0 0 0-.94-2.61c3.14-.35 6.44-1.54 6.44-7A5.44 5.44 0 0 0 19 4.77 5.07 5.07 0 0 0 18.91 1s-1.18-.35-3.91 1.48a13.38 13.38 0 0 0-6 0C6.27.65 5.09 1 5.09 1A5.07 5.07 0 0 0 5 4.77 5.44 5.44 0 0 0 3.5 8.5c0 5.42 3.3 6.61 6.44 7A3.37 3.37 0 0 0 9 18.13V22" />
  </symbol>
  <symbol id="linkedin" viewBox="0 0 24 24" fill="none" stroke="currentColor" stroke-width="2" stroke-linecap="round" stroke-linejoin="round">
    <path d="M16 8a6 6 0 0 1 6 6v7h-4v-7a2 2 0 0 0-4 0v7h-4v-7a6 6 0 0 1 6-6z" />
    <rect x="2" y="9" width="4" height="12" />
    <circle cx="4" cy="4" r="2" />
  </symbol>
  <symbol id="mail" viewBox="0 0 24 24" fill="none" stroke="currentColor" stroke-width="2" stroke-linecap="round" stroke-linejoin="round">
    <rect width="20" height="16" x="2" y="4" rx="2" />
    <path d="m22 7-10 6L2 7" />
  </symbol>
  <symbol id="rss" viewBox="0 0 24 24" fill="none" stroke="currentColor" stroke-width="2" stroke-linecap="round" stroke-linejoin="round">
    <path d="M4 11a9 9 0 0 1 9 9" />
    <path d="M4 4a16 16 0 0 1 16 16" />
    <circle cx="5" cy="19" r="1" />
  </symbol>
  <symbol id="server" viewBox="0 0 24 24" fill="none" stroke="currentColor" stroke-width="2" stroke-linecap="round" stroke-linejoin="round">
    <rect x="2" y="2" width="20" height="8" rx="2" ry="2" />
    <rect x="2" y="14" width="20" height="8" rx="2" ry="2" />
    <line x1="6" y1="6" x2="6.01" y2="6" />
    <line x1="6" y1="18" x2="6.01" y2="18" />
  </symbol>
  <symbol id="shield" viewBox="0 0 24 24" fill="none" stroke="currentColor" stroke-width="2" stroke-linecap="round" stroke-linejoin="round">
    <path d="M12 22s8-4 8-10V5l-8-3-8 3v7c0 6 8 10 8 10" />
  </symbol>
  <symbol id="workflow" viewBox="0 0 24 24" fill="none" stroke="currentColor" stroke-width="2" stroke-linecap="round" stroke-linejoin="round">
    <rect x="3" y="3" width="6" height="6" rx="1" />
    <rect x="15" y="15" width="6" height="6" rx="1" />
    <path d="M21 3h-6" />
    <path d="M3 21h6" />
    <path d="M21 3v6" />
    <path d="m15 15-8-8" />
  </symbol>
</svg>
